<?xml version="1.0" encoding="UTF-8"?>
<svg width="107px" height="113px" viewBox="0 0 107 113" version="1.1" xmlns="http://www.w3.org/2000/svg" xmlns:xlink="http://www.w3.org/1999/xlink">
    <title>Icon - Grow Your Currency</title>
    <defs>
        <linearGradient x1="91.0704968%" y1="0%" x2="50%" y2="100%" id="linearGradient-1">
            <stop stop-color="#382BC5" offset="0%"></stop>
            <stop stop-color="#FF3CAC" offset="100%"></stop>
        </linearGradient>
        <path d="M19.3427658,44.7761194 C19.8923029,44.7761194 20.3377907,45.2216072 20.3377907,45.7711443 L20.3377907,93.5323383 C20.3377907,94.0818754 19.8923029,94.5273632 19.3427658,94.5273632 L1.43231805,94.5273632 C0.882780983,94.5273632 0.437293172,94.0818754 0.437293172,93.5323383 L0.437293172,45.7711443 C0.437293172,45.2216072 0.882780983,44.7761194 1.43231805,44.7761194 L19.3427658,44.7761194 Z M46.7059499,29.8507463 C47.255487,29.8507463 47.7009748,30.2962341 47.7009748,30.8457711 L47.7009748,93.5323383 C47.7009748,94.0818754 47.255487,94.5273632 46.7059499,94.5273632 L28.7955021,94.5273632 C28.2459651,94.5273632 27.8004773,94.0818754 27.8004773,93.5323383 L27.8004773,30.8457711 C27.8004773,30.2962341 28.2459651,29.8507463 28.7955021,29.8507463 L46.7059499,29.8507463 Z M74.069134,14.9253731 C74.618671,14.9253731 75.0641588,15.3708609 75.0641588,15.920398 L75.0641588,93.5323383 C75.0641588,94.0818754 74.618671,94.5273632 74.069134,94.5273632 L56.1586862,94.5273632 C55.6091491,94.5273632 55.1636613,94.0818754 55.1636613,93.5323383 L55.1636613,15.920398 C55.1636613,15.3708609 55.6091491,14.9253731 56.1586862,14.9253731 L74.069134,14.9253731 Z M101.432318,0 C101.981855,1.00739814e-17 102.427343,0.445487811 102.427343,0.995024876 L102.427343,93.5323383 C102.427343,94.0818754 101.981855,94.5273632 101.432318,94.5273632 L83.5218703,94.5273632 C82.9723332,94.5273632 82.5268454,94.0818754 82.5268454,93.5323383 L82.5268454,0.995024876 C82.5268454,0.445487811 82.9723332,-3.67380996e-15 83.5218703,0 L101.432318,0 Z" id="path-2"></path>
        <filter x="-1.5%" y="-1.6%" width="105.9%" height="103.2%" filterUnits="objectBoundingBox" id="filter-3">
            <feOffset dx="3" dy="0" in="SourceAlpha" result="shadowOffsetOuter1"></feOffset>
            <feColorMatrix values="0 0 0 0 0   0 0 0 0 0   0 0 0 0 0  0 0 0 0.05 0" type="matrix" in="shadowOffsetOuter1"></feColorMatrix>
        </filter>
        <path d="M4.21376588e-12,19.8856422 C4.21376588e-12,30.8684745 8.84083081,39.7715647 19.7465818,39.7715647 L19.7465818,39.7715647 C30.6526111,39.7715647 39.4934419,30.8684745 39.4934419,19.8856422 L39.4934419,19.8856422 C39.4934419,8.90309018 30.6526111,3.32647122e-12 19.7465818,3.32647122e-12 L19.7465818,3.32647122e-12 C8.84083081,3.32647122e-12 4.21376588e-12,8.90309018 4.21376588e-12,19.8856422" id="path-4"></path>
        <filter x="-2.5%" y="-2.5%" width="110.1%" height="105.0%" filterUnits="objectBoundingBox" id="filter-5">
            <feOffset dx="2" dy="0" in="SourceAlpha" result="shadowOffsetOuter1"></feOffset>
            <feColorMatrix values="0 0 0 0 0   0 0 0 0 0   0 0 0 0 0  0 0 0 0.05 0" type="matrix" in="shadowOffsetOuter1"></feColorMatrix>
        </filter>
    </defs>
    <g id="Celsius-Key-Pages" stroke="none" stroke-width="1" fill="none" fill-rule="evenodd">
        <g id="Celsius---Borrow---Page---Desktop---1" transform="translate(-293.000000, -7653.000000)">
            <g id="Module" transform="translate(0.000000, 6860.000000)">
                <g id="Points" transform="translate(178.000000, 770.000000)">
                    <g id="Item">
                        <g id="Icon---Grow-Your-Currency" transform="translate(118.000000, 23.000000)">
                            <g id="Main">
                                <circle id="Mask-Copy-2" fill="url(#linearGradient-1)" cx="49.7512438" cy="57.7114428" r="49.7512438"></circle>
                                <g id="Graph" transform="translate(-2.924855, 17.910448)">
                                    <g id="Combined-Shape">
                                        <use fill="black" fill-opacity="1" filter="url(#filter-3)" xlink:href="#path-2"></use>
                                        <use fill="#FBB1FF" fill-rule="evenodd" xlink:href="#path-2"></use>
                                    </g>
                                </g>
                            </g>
                            <g id="Coin" transform="translate(0.000000, 67.661692)">
                                <g id="Fill-1">
                                    <use fill="black" fill-opacity="1" filter="url(#filter-5)" xlink:href="#path-4"></use>
                                    <use fill="#FFE4FF" fill-rule="evenodd" xlink:href="#path-4"></use>
                                </g>
                                <path d="M19.9004064,6.96517413 L20.2101545,6.96880982 C27.2111771,7.13332174 32.8358209,12.8600004 32.8358209,19.9004064 L32.8358209,19.9004064 L32.8321852,20.2101545 C32.6676732,27.2111771 26.940992,32.8358209 19.9004064,32.8358209 L19.9004064,32.8358209 L19.5906661,32.8321852 C12.5898179,32.6676732 6.96517413,26.940992 6.96517413,19.9004064 C6.96517413,12.756465 12.756465,6.96517413 19.9004064,6.96517413 L19.9004064,6.96517413 Z M19.9004274,9.95024876 C14.4050879,9.95024876 9.95024876,14.4050879 9.95024876,19.9004274 C9.95024876,25.3027634 14.2553562,29.6994358 19.6219167,29.8469236 L19.9004274,29.8507463 C25.3027634,29.8507463 29.6994358,25.5456388 29.8469236,20.1789451 L29.8507463,19.9004274 C29.8507463,14.4982293 25.5456388,10.1015592 20.1789451,9.95407141 L19.9004274,9.95024876 Z" id="Combined-Shape" fill="url(#linearGradient-1)"></path>
                            </g>
                        </g>
                    </g>
                </g>
            </g>
        </g>
    </g>
</svg>