<svg id="Gradient" height="512" viewBox="0 0 512 512" width="512" xmlns="http://www.w3.org/2000/svg" xmlns:xlink="http://www.w3.org/1999/xlink"><linearGradient id="linear-gradient" gradientUnits="userSpaceOnUse" x1="256" x2="256" y1="496" y2="16"><stop offset="0" stop-color="#12bee5"/><stop offset=".5" stop-color="#c071e9"/><stop offset="1" stop-color="#f24f5a"/></linearGradient><path d="m488 16h-40a8 8 0 0 0 0 16h20.686l-32 32h-22.062a24 24 0 1 0 -44.279 18.34l-152.005 152.005a23.989 23.989 0 0 0 -32.964 13.655h-74.752a24 24 0 1 0 -44.279 18.34l-48 48a8 8 0 0 0 11.314 11.314l48-48a23.989 23.989 0 0 0 32.965-13.654h74.752a24 24 0 1 0 44.279-18.34l152.005-152a23.989 23.989 0 0 0 32.964-13.66h25.376a8 8 0 0 0 5.657-2.343l34.343-34.343v20.686a8 8 0 0 0 16 0v-40a8 8 0 0 0 -8-8zm-400 248a8 8 0 1 1 8-8 8.009 8.009 0 0 1 -8 8zm120 0a8 8 0 1 1 8-8 8.009 8.009 0 0 1 -8 8zm184-184a8 8 0 1 1 8-8 8.009 8.009 0 0 1 -8 8zm-280 416a8 8 0 0 0 8-8v-160a8 8 0 0 0 -8-8h-48a8 8 0 0 0 -8 8v160a8 8 0 0 0 8 8zm-40-160h32v144h-32zm128 160a8 8 0 0 0 8-8v-184a8 8 0 0 0 -8-8h-48a8 8 0 0 0 -8 8v184a8 8 0 0 0 8 8zm-40-184h32v168h-32zm128-24h-48a8 8 0 0 0 -8 8v192a8 8 0 0 0 8 8h48a8 8 0 0 0 8-8v-192a8 8 0 0 0 -8-8zm-8 192h-32v-176h32zm103.979 8v-304a7.979 7.979 0 0 0 -7.979-7.979h-48a7.979 7.979 0 0 0 -7.979 7.979v304a7.979 7.979 0 0 0 7.979 7.979h48a7.979 7.979 0 0 0 7.979-7.979zm-15.958-7.979h-32.042v-288.042h32.042zm103.958 7.979v-368a7.98 7.98 0 0 0 -7.979-7.979h-48a7.98 7.98 0 0 0 -7.979 7.979v368a7.98 7.98 0 0 0 7.979 7.979h48a7.98 7.98 0 0 0 7.979-7.979zm-15.958-7.979h-32.042v-352.042h32.042z" fill="url(#linear-gradient)"/></svg>