<svg id="Flat" height="512" viewBox="0 0 512 512" width="512" xmlns="http://www.w3.org/2000/svg"><path d="m64 304a22.722 22.722 0 0 0 -1.98 2.3l-4.991-74.866a16.532 16.532 0 0 0 -16.496-15.434 16.533 16.533 0 0 0 -16.533 16.533v103.467l40 80v40l48 16 48-16v-88l-64-64a22.627 22.627 0 0 0 -32 0z" fill="#f0c6a4"/><path d="m471.467 216a16.532 16.532 0 0 0 -16.5 15.433l-4.987 74.867a22.474 22.474 0 0 0 -33.98-2.3l-64 64v88l48 16 48-16v-40l40-80v-103.467a16.533 16.533 0 0 0 -16.533-16.533z" fill="#f0c6a4"/><circle cx="176" cy="160" fill="#ffd33a" r="56"/><path d="m176 224a64 64 0 1 1 64-64 64.072 64.072 0 0 1 -64 64zm0-112a48 48 0 1 0 48 48 48.055 48.055 0 0 0 -48-48z" fill="#ffb632"/><circle cx="304" cy="80" fill="#ffd33a" r="56"/><g fill="#ffb632"><path d="m304 144a64 64 0 1 1 64-64 64.072 64.072 0 0 1 -64 64zm0-112a48 48 0 1 0 48 48 48.054 48.054 0 0 0 -48-48z"/><path d="m192 144a8 8 0 0 0 -8-8 8 8 0 0 0 -16 0v2.165a15.986 15.986 0 0 0 8 29.835h-8a8 8 0 0 0 0 16 8 8 0 0 0 16 0v-2.165a15.986 15.986 0 0 0 -8-29.835h8a8 8 0 0 0 8-8z"/><path d="m304 72h8a8 8 0 0 0 0-16 8 8 0 0 0 -16 0v2.165a15.986 15.986 0 0 0 8 29.835h-8a8 8 0 0 0 0 16 8 8 0 0 0 16 0v-2.165a15.986 15.986 0 0 0 -8-29.835z"/></g><path d="m312 240s-17.667-104 104-104c0 0 10.333 104-104 104z" fill="#3dc285"/><path d="m240 320s-96 7.667-96-80c0 0 96-15.667 96 80z" fill="#3dc285"/><path d="m56 456h112v32h-112z" fill="#2d85cc"/><path d="m344 456h112v32h-112z" fill="#2d85cc" transform="matrix(-1 0 0 -1 800 944)"/><path d="m365.657 186.343a8 8 0 0 0 -11.314 0l-64 64c-21.207 21.207-32.972 48.789-34.226 80.048a119.981 119.981 0 0 0 -18.46-24.048l-24-24a8 8 0 0 0 -11.314 11.314l24 24c17.739 17.743 29.657 44.4 29.657 66.343v96a8 8 0 0 0 16 0v-144c0-29.652 9.978-54.664 29.657-74.343l64-64a8 8 0 0 0 0-11.314z" fill="#35a872"/><path d="m104 384a7.974 7.974 0 0 1 -5.657-2.343l-40-40a30.662 30.662 0 0 1 0-43.314 8 8 0 0 1 11.314 11.314 14.644 14.644 0 0 0 0 20.686l40 40a8 8 0 0 1 -5.657 13.657z" fill="#e0b999"/><path d="m408 384a8 8 0 0 1 -5.657-13.657l40-40a14.644 14.644 0 0 0 0-20.686 8 8 0 0 1 11.314-11.314 30.662 30.662 0 0 1 0 43.314l-40 40a7.974 7.974 0 0 1 -5.657 2.343z" fill="#e0b999"/></svg>