<?xml version="1.0" encoding="UTF-8"?>
<svg width="107px" height="116px" viewBox="0 0 107 116" version="1.1" xmlns="http://www.w3.org/2000/svg" xmlns:xlink="http://www.w3.org/1999/xlink">
    <title>Icon - Loan Term</title>
    <defs>
        <linearGradient x1="91.0704968%" y1="0%" x2="50%" y2="100%" id="linearGradient-1">
            <stop stop-color="#382BC5" offset="0%"></stop>
            <stop stop-color="#FF3CAC" offset="100%"></stop>
        </linearGradient>
        <linearGradient x1="12.9653057%" y1="59.0451504%" x2="88.6725004%" y2="49.9999219%" id="linearGradient-2">
            <stop stop-color="#DF84FF" offset="0%"></stop>
            <stop stop-color="#FFB7FF" offset="100%"></stop>
        </linearGradient>
        <path d="M34.6858697,35.4584241 C35.4048255,35.4584241 35.9876543,36.041253 35.9876543,36.7602088 L35.9876543,47.3873947 C35.9876543,48.1063505 35.4048255,48.6891794 34.6858697,48.6891794 L24.0586837,48.6891794 C23.3397279,48.6891794 22.7568991,48.1063505 22.7568991,47.3873947 L22.7568991,36.7602088 C22.7568991,36.041253 23.3397279,35.4584241 24.0586837,35.4584241 L34.6858697,35.4584241 Z M11.9289706,35.4584241 C12.6479264,35.4584241 13.2307553,36.041253 13.2307553,36.7602088 L13.2307553,47.3873947 C13.2307553,48.1063505 12.6479264,48.6891794 11.9289706,48.6891794 L1.30178466,48.6891794 C0.582828843,48.6891794 8.23843645e-16,48.1063505 0,47.3873947 L0,36.7602088 C-8.80466935e-17,36.041253 0.582828843,35.4584241 1.30178466,35.4584241 L11.9289706,35.4584241 Z M56.9135385,17.9938272 C57.6324943,17.9938272 58.2153232,18.576656 58.2153232,19.2956118 L58.2153232,29.9227978 C58.2153232,30.6417536 57.6324943,31.2245824 56.9135385,31.2245824 L46.2863526,31.2245824 C45.5673967,31.2245824 44.9845679,30.6417536 44.9845679,29.9227978 L44.9845679,19.2956118 C44.9845679,18.576656 45.5673967,17.9938272 46.2863526,17.9938272 L56.9135385,17.9938272 Z M11.9289706,17.9938272 C12.6479264,17.9938272 13.2307553,18.576656 13.2307553,19.2956118 L13.2307553,29.9227978 C13.2307553,30.6417536 12.6479264,31.2245824 11.9289706,31.2245824 L1.30178466,31.2245824 C0.582828843,31.2245824 8.23843645e-16,30.6417536 0,29.9227978 L0,19.2956118 C-8.80466935e-17,18.576656 0.582828843,17.9938272 1.30178466,17.9938272 L11.9289706,17.9938272 Z M34.6858697,17.4645969 C35.4048255,17.4645969 35.9876543,18.0474258 35.9876543,18.7663816 L35.9876543,29.3935676 C35.9876543,30.1125234 35.4048255,30.6953522 34.6858697,30.6953522 L24.0586837,30.6953522 C23.3397279,30.6953522 22.7568991,30.1125234 22.7568991,29.3935676 L22.7568991,18.7663816 C22.7568991,18.0474258 23.3397279,17.4645969 24.0586837,17.4645969 L34.6858697,17.4645969 Z M56.9135385,0 C57.6324943,1.14505204e-15 58.2153232,0.582828843 58.2153232,1.30178466 L58.2153232,11.9289706 C58.2153232,12.6479264 57.6324943,13.2307553 56.9135385,13.2307553 L46.2863526,13.2307553 C45.5673967,13.2307553 44.9845679,12.6479264 44.9845679,11.9289706 L44.9845679,1.30178466 C44.9845679,0.582828843 45.5673967,-8.99745646e-17 46.2863526,0 L56.9135385,0 Z M34.6858697,0 C35.4048255,1.14505204e-15 35.9876543,0.582828843 35.9876543,1.30178466 L35.9876543,11.9289706 C35.9876543,12.6479264 35.4048255,13.2307553 34.6858697,13.2307553 L24.0586837,13.2307553 C23.3397279,13.2307553 22.7568991,12.6479264 22.7568991,11.9289706 L22.7568991,1.30178466 C22.7568991,0.582828843 23.3397279,-8.99745646e-17 24.0586837,0 L34.6858697,0 Z M11.9289706,0 C12.6479264,1.14505204e-15 13.2307553,0.582828843 13.2307553,1.30178466 L13.2307553,11.9289706 C13.2307553,12.6479264 12.6479264,13.2307553 11.9289706,13.2307553 L1.30178466,13.2307553 C0.582828843,13.2307553 8.23843645e-16,12.6479264 0,11.9289706 L0,1.30178466 C-8.80466935e-17,0.582828843 0.582828843,-8.99745646e-17 1.30178466,0 L11.9289706,0 Z" id="path-3"></path>
        <filter x="-1.9%" y="-2.3%" width="105.5%" height="106.6%" filterUnits="objectBoundingBox" id="filter-4">
            <feMorphology radius="0.608614742" operator="dilate" in="SourceAlpha" result="shadowSpreadOuter1"></feMorphology>
            <feOffset dx="1" dy="1" in="shadowSpreadOuter1" result="shadowOffsetOuter1"></feOffset>
            <feMorphology radius="1" operator="erode" in="SourceAlpha" result="shadowInner"></feMorphology>
            <feOffset dx="1" dy="1" in="shadowInner" result="shadowInner"></feOffset>
            <feComposite in="shadowOffsetOuter1" in2="shadowInner" operator="out" result="shadowOffsetOuter1"></feComposite>
            <feColorMatrix values="0 0 0 0 0   0 0 0 0 0   0 0 0 0 0  0 0 0 0.05 0" type="matrix" in="shadowOffsetOuter1"></feColorMatrix>
        </filter>
        <linearGradient x1="-40.9129792%" y1="83.8248424%" x2="93.325309%" y2="23.9283982%" id="linearGradient-5">
            <stop stop-color="#4F1DFF" offset="0%"></stop>
            <stop stop-color="#B980FF" offset="100%"></stop>
        </linearGradient>
        <rect id="path-6" x="44.9845679" y="35.4584241" width="13.2307553" height="13.2307553" rx="1.30178466"></rect>
        <filter x="-3.8%" y="-3.8%" width="115.1%" height="115.1%" filterUnits="objectBoundingBox" id="filter-7">
            <feOffset dx="1" dy="1" in="SourceAlpha" result="shadowOffsetOuter1"></feOffset>
            <feColorMatrix values="0 0 0 0 0   0 0 0 0 0   0 0 0 0 0  0 0 0 0.05 0" type="matrix" in="shadowOffsetOuter1"></feColorMatrix>
        </filter>
    </defs>
    <g id="Celsius-Key-Pages" stroke="none" stroke-width="1" fill="none" fill-rule="evenodd">
        <g id="Celsius---Borrow---Page---Desktop---1" transform="translate(-176.000000, -8756.000000)">
            <g id="Section" transform="translate(172.000000, 8270.000000)">
                <g id="Item" transform="translate(-0.000000, 486.443651)">
                    <g id="Icon---Loan-Term" transform="translate(4.000000, 0.000000)">
                        <g id="Calendar">
                            <circle id="Mask-Copy-2" fill="url(#linearGradient-1)" cx="52.9230211" cy="61.3907044" r="52.9230211"></circle>
                            <g id="Bg" transform="translate(26.461511, 22.756899)" fill="#FFE4FF">
                                <path d="M78.3260712,0 C78.9106427,-1.07384051e-16 79.3845316,0.473888872 79.3845316,1.05846042 L79.3845316,75.1506899 C79.3845316,75.7352615 78.9106427,76.2091503 78.3260712,76.2091503 L1.05846042,76.2091503 C0.473888872,76.2091503 -2.14885668e-15,75.7352615 0,75.1506899 L0,1.05846042 C-7.15893676e-17,0.473888872 0.473888872,-2.113062e-15 1.05846042,0 L78.3260712,0 Z M17.4645969,6.87999274 C16.0031681,6.87999274 14.8184459,8.06471492 14.8184459,9.52614379 C14.8184459,10.9875727 16.0031681,12.1722948 17.4645969,12.1722948 C18.9260258,12.1722948 20.110748,10.9875727 20.110748,9.52614379 C20.110748,8.06471492 18.9260258,6.87999274 17.4645969,6.87999274 Z M62.4491649,6.87999274 C60.987736,6.87999274 59.8030138,8.06471492 59.8030138,9.52614379 C59.8030138,10.9875727 60.987736,12.1722948 62.4491649,12.1722948 C63.9105937,12.1722948 65.0953159,10.9875727 65.0953159,9.52614379 C65.0953159,8.06471492 63.9105937,6.87999274 62.4491649,6.87999274 Z" id="Combined-Shape"></path>
                            </g>
                            <g id="Foreground" transform="translate(36.516885, 41.809187)">
                                <g id="Combined-Shape">
                                    <use fill="black" fill-opacity="1" filter="url(#filter-4)" xlink:href="#path-3"></use>
                                    <use stroke="url(#linearGradient-2)" stroke-width="1.21722948" xlink:href="#path-3"></use>
                                </g>
                                <g id="Rectangle">
                                    <use fill="black" fill-opacity="1" filter="url(#filter-7)" xlink:href="#path-6"></use>
                                    <use fill="url(#linearGradient-5)" fill-rule="evenodd" xlink:href="#path-6"></use>
                                </g>
                            </g>
                        </g>
                    </g>
                </g>
            </g>
        </g>
    </g>
</svg>